<svg width="20" height="20" viewBox="0 0 20 20" fill="none" xmlns="http://www.w3.org/2000/svg">
<path d="M12.9835 10C12.9835 11.65 11.6502 12.9833 10.0002 12.9833C8.35018 12.9833 7.01685 11.65 7.01685 10C7.01685 8.35 8.35018 7.01666 10.0002 7.01666C11.6502 7.01666 12.9835 8.35 12.9835 10Z" stroke="#E43631" stroke-width="1.5" stroke-linecap="round" stroke-linejoin="round"/>
<path d="M9.99999 16.8914C12.9417 16.8914 15.6833 15.1581 17.5917 12.1581C18.3417 10.9831 18.3417 9.00809 17.5917 7.83309C15.6833 4.83309 12.9417 3.09976 9.99999 3.09976C7.05832 3.09976 4.31666 4.83309 2.40833 7.83309C1.65833 9.00809 1.65833 10.9831 2.40833 12.1581C4.31666 15.1581 7.05832 16.8914 9.99999 16.8914Z" stroke="#E43631" stroke-width="1.5" stroke-linecap="round" stroke-linejoin="round"/>
</svg>
