<svg width="24" height="24" viewBox="0 0 24 24" fill="none" xmlns="http://www.w3.org/2000/svg">
<path fill-rule="evenodd" clip-rule="evenodd" d="M18.3715 3.0295C17.9435 2.86457 17.4778 2.82313 17.0274 2.90992L16.75 2.96337V4.61858C17.4742 4.48027 18.2228 4.54747 18.9109 4.81264C19.338 4.97724 19.8019 5.01857 20.25 4.93317V3.27487C19.6437 3.35423 19.025 3.28136 18.4506 3.06001L18.3715 3.0295ZM16.75 6.14616L17.0274 6.09271C17.4778 6.00593 17.9435 6.04736 18.3715 6.2123C19.1193 6.5005 19.9371 6.55434 20.7163 6.36667L20.7829 6.35063C21.3502 6.21398 21.75 5.70644 21.75 5.12291V2.90141C21.75 2.13209 21.0305 1.5653 20.2825 1.74544C19.8531 1.84889 19.4023 1.81921 18.99 1.66035L18.9109 1.62984C18.2207 1.36389 17.4698 1.29707 16.7436 1.43701L16.2575 1.53067C15.6726 1.64337 15.25 2.15523 15.25 2.75086V6.25H7C6.95339 6.25 6.90777 6.25425 6.86352 6.26239C6.74341 6.25418 6.62219 6.25 6.5 6.25C3.6005 6.25 1.25 8.60051 1.25 11.5V16.7674C1.25 18.4147 2.58534 19.75 4.23256 19.75H9.75V22C9.75 22.4142 10.0858 22.75 10.5 22.75C10.9142 22.75 11.25 22.4142 11.25 22V19.75H13.75V22C13.75 22.4142 14.0858 22.75 14.5 22.75C14.9142 22.75 15.25 22.4142 15.25 22V19.75H19.7931C21.4261 19.75 22.75 18.4262 22.75 16.7931V11.5C22.75 8.60051 20.3995 6.25 17.5 6.25H16.75V6.14616ZM15.25 7.75V11C15.25 11.4142 15.5858 11.75 16 11.75C16.4142 11.75 16.75 11.4142 16.75 11V7.75H17.5C19.5711 7.75 21.25 9.42893 21.25 11.5V16.7931C21.25 17.5977 20.5977 18.25 19.7931 18.25H11.75V11.5C11.75 10.031 11.1466 8.70289 10.1742 7.75H15.25ZM10.25 18.25V11.5C10.25 9.42893 8.57107 7.75 6.5 7.75C4.42893 7.75 2.75 9.42893 2.75 11.5V16.7674C2.75 17.5862 3.41376 18.25 4.23256 18.25H10.25ZM4.25 16C4.25 15.5858 4.58579 15.25 5 15.25H8C8.41421 15.25 8.75 15.5858 8.75 16C8.75 16.4142 8.41421 16.75 8 16.75H5C4.58579 16.75 4.25 16.4142 4.25 16Z" fill="#1C274C"/>
</svg>
