<svg width="44" height="44" viewBox="0 0 44 44" fill="none" xmlns="http://www.w3.org/2000/svg">
<rect width="44" height="44" rx="22" fill="#601715"/>
<path fill-rule="evenodd" clip-rule="evenodd" d="M19.7083 19.5C19.7083 18.2344 20.7343 17.2083 22 17.2083C23.2657 17.2083 24.2917 18.2344 24.2917 19.5C24.2917 20.7657 23.2657 21.7917 22 21.7917C20.7343 21.7917 19.7083 20.7657 19.7083 19.5ZM22 18.4583C21.4247 18.4583 20.9583 18.9247 20.9583 19.5C20.9583 20.0753 21.4247 20.5417 22 20.5417C22.5753 20.5417 23.0417 20.0753 23.0417 19.5C23.0417 18.9247 22.5753 18.4583 22 18.4583Z" fill="white"/>
<path fill-rule="evenodd" clip-rule="evenodd" d="M22 22.2083C21.0035 22.2083 20.0705 22.409 19.3635 22.7625C18.6938 23.0973 18.0417 23.6755 18.0417 24.5L18.0416 24.5521C18.0403 24.9774 18.0381 25.6935 18.7169 26.1848C19.0318 26.4128 19.4474 26.5582 19.9622 26.6508C20.4818 26.7443 21.1477 26.7917 22 26.7917C22.8523 26.7917 23.5182 26.7443 24.0378 26.6508C24.5526 26.5582 24.9682 26.4128 25.2831 26.1848C25.9619 25.6935 25.9597 24.9774 25.9584 24.5521L25.9583 24.5C25.9583 23.6755 25.3062 23.0973 24.6365 22.7625C23.9295 22.409 22.9965 22.2083 22 22.2083ZM19.2917 24.5C19.2917 24.404 19.3857 24.1489 19.9225 23.8805C20.4219 23.6308 21.1555 23.4583 22 23.4583C22.8445 23.4583 23.5781 23.6308 24.0775 23.8805C24.6143 24.1489 24.7083 24.404 24.7083 24.5C24.7083 25.0037 24.6763 25.081 24.5502 25.1722C24.4485 25.2459 24.2391 25.3445 23.8164 25.4206C23.3985 25.4958 22.8143 25.5417 22 25.5417C21.1857 25.5417 20.6015 25.4958 20.1836 25.4206C19.7609 25.3445 19.5515 25.2459 19.4498 25.1722C19.3237 25.081 19.2917 25.0037 19.2917 24.5Z" fill="white"/>
<path fill-rule="evenodd" clip-rule="evenodd" d="M19.2695 13.7093C20.4728 13.2972 21.2187 13.0417 22 13.0417C22.7813 13.0417 23.5272 13.2972 24.7305 13.7093L25.3367 13.9168C26.5711 14.3393 27.5238 14.6654 28.2058 14.9425C28.5493 15.0821 28.8447 15.2172 29.0825 15.3553C29.3114 15.4883 29.541 15.654 29.697 15.8763C29.8512 16.096 29.9309 16.366 29.981 16.626C30.0331 16.8963 30.0645 17.2205 30.0847 17.5928C30.125 18.332 30.125 19.3447 30.125 20.6582V21.9928C30.125 27.077 26.285 29.5146 24.0014 30.5121L23.9788 30.522C23.6956 30.6457 23.4295 30.762 23.1237 30.8403C22.8008 30.923 22.4577 30.9583 22 30.9583C21.5423 30.9583 21.1992 30.923 20.8763 30.8403C20.5705 30.762 20.3044 30.6457 20.0212 30.522L19.9986 30.5121C17.715 29.5146 13.875 27.077 13.875 21.9928V20.6583C13.875 19.3448 13.875 18.332 13.9152 17.5928C13.9355 17.2205 13.9669 16.8963 14.019 16.626C14.0691 16.366 14.1488 16.096 14.303 15.8763C14.459 15.654 14.6886 15.4883 14.9175 15.3553C15.1553 15.2172 15.4507 15.0821 15.7942 14.9425C16.4762 14.6654 17.4288 14.3393 18.6633 13.9168L19.2695 13.7093ZM22 14.2917C21.4519 14.2917 20.9126 14.468 19.5672 14.9286L19.0898 15.092C17.8293 15.5235 16.9101 15.8384 16.2647 16.1006C15.9425 16.2315 15.7091 16.3411 15.5452 16.4363C15.4644 16.4833 15.4086 16.522 15.3714 16.5523C15.3398 16.5779 15.3278 16.5925 15.3261 16.5946C15.3245 16.5972 15.3141 16.6145 15.2995 16.6555C15.2829 16.7022 15.2644 16.7692 15.2464 16.8626C15.21 17.0514 15.1825 17.3108 15.1634 17.6608C15.1252 18.3618 15.125 19.3403 15.125 20.6806V21.9928C15.125 26.3054 18.3499 28.4279 20.499 29.3667C20.8086 29.5019 20.9873 29.5784 21.1863 29.6294C21.3764 29.678 21.6083 29.7083 22 29.7083C22.3917 29.7083 22.6236 29.678 22.8137 29.6294C23.0127 29.5784 23.1914 29.5019 23.501 29.3667C25.6501 28.4279 28.875 26.3054 28.875 21.9928V20.6806C28.875 19.3403 28.8748 18.3618 28.8366 17.6608C28.8175 17.3108 28.79 17.0514 28.7536 16.8626C28.7356 16.7692 28.7171 16.7022 28.7005 16.6555C28.6859 16.6145 28.6755 16.5972 28.6739 16.5946C28.6722 16.5924 28.6601 16.5779 28.6286 16.5523C28.5914 16.522 28.5356 16.4833 28.4548 16.4363C28.2909 16.3411 28.0575 16.2315 27.7353 16.1006C27.0899 15.8384 26.1707 15.5235 24.9102 15.092L24.4328 14.9286C23.0874 14.468 22.5481 14.2917 22 14.2917Z" fill="white"/>
</svg>
