<svg width="158" height="40" viewBox="0 0 158 40" fill="none" xmlns="http://www.w3.org/2000/svg">
<path d="M20.82 37.976C16.0502 37.976 11.4755 36.0829 8.10057 32.7124C4.7256 29.3419 2.82637 24.7697 2.82001 20V1.97595H38.82V20C38.8137 24.7697 36.9144 29.3419 33.5394 32.7124C30.1645 36.0829 25.5898 37.976 20.82 37.976Z" stroke="white" stroke-width="0.8" stroke-miterlimit="10"/>
<path d="M20.82 35.304C16.5914 35.304 12.5359 33.6242 9.54584 30.6342C6.55578 27.6441 4.87597 23.5886 4.87597 19.36V3.41602H36.756V19.36C36.756 23.5873 35.0773 27.6414 32.0889 30.6313C29.1006 33.6211 25.0472 35.3019 20.82 35.304Z" stroke="white" stroke-width="0.8" stroke-miterlimit="10"/>
<path d="M20.82 32.6241C18.9935 32.6283 17.1842 32.2722 15.4954 31.5761C13.8068 30.88 12.272 29.8578 10.979 28.5677C9.68599 27.2777 8.66015 25.7452 7.96021 24.0582C7.26027 22.3711 6.89999 20.5626 6.89999 18.7361V4.85608H34.7V18.7361C34.701 20.5595 34.3428 22.3652 33.6458 24.0502C32.9487 25.7351 31.9265 27.2662 30.6374 28.5559C29.3485 29.8456 27.818 30.8688 26.1335 31.5668C24.449 32.2648 22.6434 32.6241 20.82 32.6241Z" stroke="white" stroke-width="0.8" stroke-miterlimit="10"/>
<path d="M20.82 29.9441C17.6834 29.9441 14.675 28.6986 12.4563 26.4814C10.2376 24.2642 8.99008 21.2567 8.988 18.1201V6.28809H32.644V18.1201C32.644 21.256 31.3982 24.2635 29.1808 26.4809C26.9634 28.6983 23.9559 29.9441 20.82 29.9441Z" stroke="white" stroke-width="0.8" stroke-miterlimit="10"/>
<path d="M20.82 27.2719C18.2272 27.2719 15.7406 26.242 13.9073 24.4086C12.074 22.5753 11.044 20.0887 11.044 17.4959V7.72791H30.588V17.4959C30.588 20.0873 29.5591 22.5726 27.7275 24.4057C25.8958 26.2389 23.4114 27.2698 20.82 27.2719Z" stroke="white" stroke-width="0.8" stroke-miterlimit="10"/>
<path d="M20.82 24.592C18.7739 24.592 16.8115 23.7797 15.364 22.3337C13.9164 20.8876 13.1022 18.9261 13.1 16.88V9.16803H28.5V16.88C28.4979 18.9192 27.6891 20.8747 26.2502 22.3196C24.8113 23.7645 22.8591 24.5815 20.82 24.592Z" stroke="white" stroke-width="0.8" stroke-miterlimit="10"/>
<path d="M20.82 21.92C19.3178 21.92 17.8771 21.3233 16.815 20.261C15.7527 19.1989 15.156 17.7581 15.156 16.256V10.6H26.476V16.256C26.476 17.7568 25.8804 19.1962 24.8199 20.2582C23.7594 21.3202 22.3208 21.9178 20.82 21.92Z" stroke="white" stroke-width="0.8" stroke-miterlimit="10"/>
<path d="M20.82 19.24C19.8653 19.24 18.9496 18.8607 18.2744 18.1856C17.5993 17.5105 17.22 16.5948 17.22 15.64V12.04H24.42V15.64C24.4179 16.5941 24.0379 17.5086 23.3633 18.1833C22.6886 18.858 21.7742 19.2379 20.82 19.24Z" stroke="white" stroke-width="0.8" stroke-miterlimit="10"/>
<path d="M48.524 29L55.46 12.2H58.436L65.3 29H62.564L60.62 24.08H53.108L51.14 29H48.524ZM53.924 21.992H59.804L56.876 14.6L53.924 21.992ZM67.0321 29V12.2H74.3041C75.4081 12.2 76.3681 12.384 77.1841 12.752C78.0001 13.12 78.6321 13.64 79.0801 14.312C79.5281 14.968 79.7521 15.744 79.7521 16.64C79.7521 17.456 79.5441 18.176 79.1281 18.8C78.7121 19.424 78.1281 19.92 77.3761 20.288C78.3201 20.624 79.0561 21.136 79.5841 21.824C80.1281 22.496 80.4001 23.288 80.4001 24.2C80.4001 25.176 80.1601 26.024 79.6801 26.744C79.2001 27.464 78.5281 28.024 77.6641 28.424C76.8001 28.808 75.7841 29 74.6161 29H67.0321ZM69.5521 19.328H74.1601C75.1041 19.328 75.8561 19.104 76.4161 18.656C76.9761 18.208 77.2561 17.6 77.2561 16.832C77.2561 16.064 76.9761 15.456 76.4161 15.008C75.8561 14.56 75.1041 14.336 74.1601 14.336H69.5521V19.328ZM69.5521 26.864H74.4241C75.4801 26.864 76.3121 26.616 76.9201 26.12C77.5441 25.624 77.8561 24.952 77.8561 24.104C77.8561 23.272 77.5441 22.608 76.9201 22.112C76.3121 21.6 75.4801 21.344 74.4241 21.344H69.5521V26.864ZM90.9873 29.264C89.7393 29.264 88.5793 29.048 87.5073 28.616C86.4513 28.168 85.5153 27.552 84.6993 26.768C83.8993 25.968 83.2753 25.048 82.8273 24.008C82.3953 22.952 82.1793 21.816 82.1793 20.6C82.1793 19.384 82.3953 18.256 82.8273 17.216C83.2753 16.16 83.8993 15.24 84.6993 14.456C85.5153 13.656 86.4593 13.04 87.5313 12.608C88.6033 12.16 89.7553 11.936 90.9873 11.936C91.8673 11.936 92.7233 12.056 93.5553 12.296C94.4033 12.52 95.1793 12.848 95.8833 13.28C96.6033 13.712 97.2273 14.232 97.7553 14.84L96.0753 16.568C95.4513 15.816 94.6913 15.248 93.7953 14.864C92.8993 14.464 91.9633 14.264 90.9873 14.264C90.0913 14.264 89.2593 14.424 88.4913 14.744C87.7393 15.064 87.0833 15.512 86.5233 16.088C85.9633 16.648 85.5233 17.312 85.2033 18.08C84.8993 18.848 84.7473 19.688 84.7473 20.6C84.7473 21.496 84.8993 22.328 85.2033 23.096C85.5233 23.864 85.9713 24.536 86.5473 25.112C87.1233 25.688 87.7953 26.136 88.5633 26.456C89.3313 26.776 90.1633 26.936 91.0593 26.936C92.0353 26.936 92.9553 26.744 93.8193 26.36C94.6993 25.96 95.4433 25.4 96.0513 24.68L97.7073 26.36C97.1473 26.952 96.5073 27.472 95.7873 27.92C95.0833 28.352 94.3153 28.688 93.4833 28.928C92.6673 29.152 91.8353 29.264 90.9873 29.264ZM105.389 29.216C104.189 29.216 103.101 28.936 102.125 28.376C101.165 27.816 100.397 27.056 99.8212 26.096C99.2612 25.136 98.9812 24.064 98.9812 22.88C98.9812 21.712 99.2532 20.656 99.7972 19.712C100.341 18.752 101.077 17.992 102.005 17.432C102.933 16.856 103.965 16.568 105.101 16.568C106.237 16.568 107.245 16.856 108.125 17.432C109.005 17.992 109.701 18.76 110.213 19.736C110.741 20.696 111.005 21.784 111.005 23V23.672H101.381C101.509 24.344 101.757 24.944 102.125 25.472C102.509 26 102.989 26.416 103.565 26.72C104.157 27.024 104.797 27.176 105.485 27.176C106.077 27.176 106.645 27.088 107.189 26.912C107.749 26.72 108.213 26.448 108.581 26.096L110.117 27.608C109.397 28.152 108.653 28.56 107.885 28.832C107.133 29.088 106.301 29.216 105.389 29.216ZM101.405 21.872H108.629C108.533 21.232 108.309 20.672 107.957 20.192C107.621 19.696 107.197 19.312 106.685 19.04C106.189 18.752 105.645 18.608 105.053 18.608C104.445 18.608 103.885 18.744 103.373 19.016C102.861 19.288 102.429 19.672 102.077 20.168C101.741 20.648 101.517 21.216 101.405 21.872ZM113.291 29V16.784H115.691V18.032C116.635 17.04 117.859 16.544 119.363 16.544C120.307 16.544 121.131 16.744 121.835 17.144C122.555 17.544 123.115 18.104 123.515 18.824C123.931 19.544 124.139 20.376 124.139 21.32V29H121.739V21.728C121.739 20.768 121.467 20.016 120.923 19.472C120.395 18.912 119.651 18.632 118.691 18.632C118.051 18.632 117.475 18.768 116.963 19.04C116.451 19.312 116.027 19.704 115.691 20.216V29H113.291ZM131.789 29.216C130.605 29.216 129.701 28.944 129.077 28.4C128.453 27.84 128.141 27.032 128.141 25.976V18.8H125.549V16.784H128.141V13.664L130.517 13.088V16.784H134.117V18.8H130.517V25.424C130.517 26.048 130.653 26.496 130.925 26.768C131.213 27.024 131.677 27.152 132.317 27.152C132.653 27.152 132.949 27.128 133.205 27.08C133.477 27.032 133.765 26.96 134.069 26.864V28.88C133.749 28.992 133.373 29.072 132.941 29.12C132.525 29.184 132.141 29.216 131.789 29.216ZM141.553 29.216C140.353 29.216 139.265 28.936 138.289 28.376C137.329 27.816 136.561 27.056 135.985 26.096C135.425 25.136 135.145 24.064 135.145 22.88C135.145 21.712 135.417 20.656 135.961 19.712C136.505 18.752 137.241 17.992 138.169 17.432C139.097 16.856 140.129 16.568 141.265 16.568C142.401 16.568 143.409 16.856 144.289 17.432C145.169 17.992 145.865 18.76 146.377 19.736C146.905 20.696 147.169 21.784 147.169 23V23.672H137.545C137.673 24.344 137.921 24.944 138.289 25.472C138.673 26 139.153 26.416 139.729 26.72C140.321 27.024 140.961 27.176 141.649 27.176C142.241 27.176 142.809 27.088 143.353 26.912C143.913 26.72 144.377 26.448 144.745 26.096L146.281 27.608C145.561 28.152 144.817 28.56 144.049 28.832C143.297 29.088 142.465 29.216 141.553 29.216ZM137.569 21.872H144.793C144.697 21.232 144.473 20.672 144.121 20.192C143.785 19.696 143.361 19.312 142.849 19.04C142.353 18.752 141.809 18.608 141.217 18.608C140.609 18.608 140.049 18.744 139.537 19.016C139.025 19.288 138.593 19.672 138.241 20.168C137.905 20.648 137.681 21.216 137.569 21.872ZM149.455 29V16.784H151.855V18.344C152.239 17.768 152.711 17.32 153.271 17C153.847 16.664 154.495 16.496 155.215 16.496C155.711 16.512 156.119 16.584 156.439 16.712V18.872C156.215 18.776 155.983 18.712 155.743 18.68C155.503 18.632 155.263 18.608 155.023 18.608C154.319 18.608 153.695 18.8 153.151 19.184C152.607 19.552 152.175 20.096 151.855 20.816V29H149.455Z" fill="white"/>
</svg>
